<svg width="111" height="37" fill="none" xmlns="http://www.w3.org/2000/svg"><rect x=".002" width="111.003" height="37" rx="18.5" fill="#F63775"/><path d="M10.332 12.364h2.755l2.654 5.011h.113l2.654-5.011h2.755l-4.244 7.522V24h-2.443v-4.114l-4.245-7.522zM24.677 24.17c-.883 0-1.646-.187-2.29-.562a3.849 3.849 0 01-1.483-1.58c-.349-.678-.523-1.464-.523-2.357 0-.902.174-1.69.523-2.364a3.804 3.804 0 011.483-1.58c.644-.379 1.407-.568 2.29-.568.882 0 1.644.19 2.284.568a3.79 3.79 0 011.488 1.58c.349.674.523 1.462.523 2.364 0 .893-.174 1.68-.523 2.357a3.838 3.838 0 01-1.488 1.58c-.64.375-1.402.563-2.284.563zm.011-1.875c.402 0 .737-.113 1.006-.34.269-.231.471-.546.608-.944.14-.397.21-.85.21-1.358 0-.507-.07-.96-.21-1.357-.137-.398-.34-.713-.608-.944-.27-.23-.604-.346-1.006-.346-.405 0-.746.115-1.023.346-.272.231-.479.546-.619.944a4.18 4.18 0 00-.205 1.357c0 .508.069.96.205 1.358.14.398.347.713.62.944.276.227.617.34 1.022.34zm9.79 5.16c-.784 0-1.457-.108-2.017-.324-.557-.212-1-.502-1.33-.87a2.674 2.674 0 01-.642-1.238l2.239-.301c.068.174.176.337.324.488.147.152.343.273.585.364a2.5 2.5 0 00.898.142c.526 0 .96-.129 1.3-.387.346-.253.518-.68.518-1.278v-1.596h-.102a2.298 2.298 0 01-.478.687 2.406 2.406 0 01-.818.529c-.333.136-.731.204-1.193.204a3.583 3.583 0 01-1.79-.454c-.534-.307-.96-.775-1.278-1.404-.315-.633-.472-1.432-.472-2.398 0-.988.161-1.814.483-2.477.322-.663.75-1.159 1.284-1.489a3.319 3.319 0 011.767-.494c.489 0 .898.083 1.227.25.33.163.595.367.796.614.204.242.362.48.471.716h.091v-1.466h2.404v8.812c0 .743-.182 1.364-.546 1.864-.363.5-.867.875-1.511 1.125-.64.254-1.377.38-2.21.38zm.05-5.398c.391 0 .72-.097.99-.29.272-.197.48-.477.625-.84.147-.368.221-.808.221-1.319 0-.511-.072-.955-.216-1.33-.144-.378-.352-.672-.625-.88-.273-.209-.604-.313-.994-.313-.398 0-.733.108-1.006.324-.273.212-.479.508-.62.887a3.77 3.77 0 00-.21 1.312c0 .504.07.94.21 1.307.145.363.351.646.62.846.273.197.608.296 1.006.296zm8.632 2.108c-.557 0-1.053-.097-1.489-.29a2.397 2.397 0 01-1.034-.87c-.25-.386-.375-.867-.375-1.442 0-.485.089-.892.267-1.222.178-.33.42-.595.727-.796.307-.2.655-.352 1.046-.454a7.969 7.969 0 011.238-.216 31.4 31.4 0 001.228-.148c.31-.049.536-.12.676-.216a.474.474 0 00.21-.42v-.034c0-.36-.114-.638-.341-.835-.224-.197-.542-.296-.955-.296-.435 0-.782.097-1.04.29-.257.19-.427.428-.51.716l-2.24-.182a3.05 3.05 0 01.671-1.375c.334-.39.763-.69 1.29-.898.53-.212 1.144-.318 1.84-.318.486 0 .95.057 1.393.17.447.114.843.29 1.187.529.349.239.623.545.824.92.201.372.301.817.301 1.336V24H45.78v-1.21h-.068a2.45 2.45 0 01-.563.721 2.605 2.605 0 01-.846.483c-.33.114-.71.17-1.142.17zm.693-1.67c.356 0 .67-.07.943-.21a1.67 1.67 0 00.642-.58c.155-.243.233-.517.233-.824v-.927a1.28 1.28 0 01-.313.137 5.692 5.692 0 01-.437.108c-.163.03-.326.059-.489.085l-.443.063a2.991 2.991 0 00-.744.198 1.19 1.19 0 00-.494.37.9.9 0 00-.177.568c0 .33.12.581.358.756.243.17.55.255.92.255zM54.123 24h-4.125V12.364h4.159c1.17 0 2.178.233 3.023.698a4.715 4.715 0 011.948 1.995c.459.867.688 1.905.688 3.114 0 1.212-.23 2.253-.688 3.125a4.725 4.725 0 01-1.96 2.005c-.848.466-1.864.699-3.045.699zm-1.665-2.108h1.562c.728 0 1.34-.129 1.836-.386.5-.262.875-.665 1.125-1.21.253-.55.38-1.258.38-2.125 0-.86-.127-1.563-.38-2.108-.25-.546-.623-.947-1.12-1.205-.496-.258-1.108-.386-1.835-.386h-1.568v7.42zM61.593 24v-8.727h2.346v1.523h.091c.16-.542.427-.951.802-1.228.375-.28.806-.42 1.295-.42a3.65 3.65 0 01.761.085v2.148a3.157 3.157 0 00-.471-.091 4.164 4.164 0 00-.551-.04 1.94 1.94 0 00-.955.233 1.715 1.715 0 00-.659.636 1.83 1.83 0 00-.239.944V24h-2.42zm10.118.17c-.898 0-1.67-.181-2.318-.545a3.736 3.736 0 01-1.49-1.557c-.348-.674-.522-1.471-.522-2.392 0-.898.174-1.685.523-2.363a3.865 3.865 0 011.472-1.586c.636-.379 1.382-.568 2.238-.568.576 0 1.112.093 1.608.278.5.182.936.457 1.307.824.375.368.667.83.875 1.387.208.553.312 1.2.312 1.943v.665h-7.369v-1.5h5.091c0-.349-.076-.657-.227-.927a1.629 1.629 0 00-.63-.63 1.8 1.8 0 00-.927-.233c-.367 0-.693.085-.977.256a1.8 1.8 0 00-.66.676c-.158.28-.24.593-.244.937v1.426c0 .432.08.805.239 1.12.163.314.392.556.687.727.296.17.646.256 1.052.256.268 0 .515-.038.738-.114a1.55 1.55 0 00.574-.34c.16-.152.28-.338.364-.558l2.238.148a3.056 3.056 0 01-.699 1.41c-.348.397-.799.707-1.352.93-.55.22-1.184.33-1.903.33zm8.074-.005c-.557 0-1.053-.097-1.489-.29a2.397 2.397 0 01-1.034-.87c-.25-.386-.375-.867-.375-1.442 0-.485.089-.892.267-1.222.178-.33.42-.595.727-.796.307-.2.656-.352 1.046-.454a7.969 7.969 0 011.238-.216 31.4 31.4 0 001.228-.148c.31-.049.536-.12.676-.216a.474.474 0 00.21-.42v-.034c0-.36-.114-.638-.341-.835-.224-.197-.542-.296-.954-.296-.436 0-.783.097-1.04.29-.258.19-.428.428-.512.716l-2.238-.182c.113-.53.337-.989.67-1.375.334-.39.763-.69 1.29-.898.53-.212 1.144-.318 1.84-.318.486 0 .95.057 1.393.17.447.114.843.29 1.187.529.349.239.624.545.824.92.201.372.301.817.301 1.336V24h-2.295v-1.21h-.068a2.45 2.45 0 01-.563.721 2.605 2.605 0 01-.846.483c-.33.114-.71.17-1.142.17zm.693-1.67c.356 0 .67-.07.943-.21a1.67 1.67 0 00.642-.58c.155-.243.233-.517.233-.824v-.927a1.28 1.28 0 01-.313.137 5.692 5.692 0 01-.437.108c-.163.03-.326.059-.489.085l-.443.063a2.991 2.991 0 00-.744.198 1.19 1.19 0 00-.495.37.9.9 0 00-.176.568c0 .33.12.581.358.756.243.17.55.255.92.255zm6.1 1.505v-8.727h2.306v1.54h.102a2.42 2.42 0 01.91-1.21c.424-.296.931-.444 1.522-.444.599 0 1.108.15 1.529.449.42.295.7.697.84 1.204h.091c.178-.5.5-.9.966-1.198.47-.303 1.025-.455 1.665-.455.814 0 1.475.26 1.983.778.511.516.767 1.247.767 2.194V24h-2.415v-5.392c0-.485-.128-.849-.386-1.091s-.58-.364-.966-.364c-.44 0-.782.14-1.028.42-.247.277-.37.643-.37 1.098V24h-2.346v-5.443c0-.428-.123-.77-.37-1.023-.242-.254-.562-.38-.96-.38-.269 0-.511.068-.727.204-.212.133-.38.32-.506.563a1.788 1.788 0 00-.187.84V24h-2.42z" fill="#fff"/></svg>